<svg width="128" height="39" viewBox="0 0 128 39" fill="none" xmlns="http://www.w3.org/2000/svg">
    <g clip-path="url(#clip0_374_1263)">
        <path d="M37.0634 11.3076C37.0634 10.8793 36.8958 10.4685 36.5974 10.1656C36.2989 9.86274 35.8942 9.69259 35.4721 9.69259C35.205 9.69786 34.9436 9.77215 34.7125 9.90843L31.5185 6.38552C31.6413 6.15586 31.7066 5.89906 31.7084 5.63777C31.71 5.34024 31.6302 5.04809 31.4779 4.79386C31.3256 4.53964 31.1067 4.33331 30.8457 4.19786C30.5847 4.0624 30.2917 4.00314 29.9995 4.02667C29.7072 4.0502 29.4271 4.1556 29.1904 4.33113L24.3025 2.1534C24.3001 1.77019 24.1631 1.40041 23.9162 1.11046C23.6693 0.820505 23.3287 0.629357 22.9554 0.57133C22.5822 0.513304 22.2008 0.592198 21.8797 0.79385C21.5586 0.995503 21.3188 1.30671 21.2035 1.6716H13.7444C13.6389 1.29399 13.4012 0.968452 13.0759 0.756118C12.7507 0.543783 12.3602 0.459255 11.9779 0.518404C11.5956 0.577553 11.2477 0.77631 10.9995 1.07736C10.7513 1.3784 10.62 1.76103 10.6302 2.1534C10.6269 2.21245 10.6269 2.27164 10.6302 2.3307L7.08673 4.16924C6.95945 3.99427 6.79851 3.84733 6.61364 3.73733C6.42878 3.62732 6.22383 3.55654 6.01123 3.52926C5.79862 3.50198 5.58277 3.51878 5.37674 3.57863C5.17072 3.63849 4.97881 3.74015 4.81263 3.87748C4.64645 4.0148 4.50946 4.18492 4.40995 4.37754C4.31045 4.57017 4.2505 4.78128 4.23373 4.9981C4.21697 5.21492 4.24373 5.43294 4.31241 5.63896C4.38109 5.84498 4.49026 6.0347 4.6333 6.19665L1.89502 9.72342C1.49927 9.64898 1.09043 9.72988 0.751225 9.94975C0.412015 10.1696 0.167758 10.512 0.0678711 10.9077C-0.0320161 11.3034 0.019924 11.7229 0.213183 12.0812C0.406442 12.4395 0.726591 12.7099 1.10886 12.8378V17.3397C0.86097 17.4188 0.636059 17.5585 0.45396 17.7466C0.271861 17.9348 0.138169 18.1655 0.0646722 18.4184C-0.00882441 18.6714 -0.0198677 18.9388 0.0325173 19.1971C0.0849023 19.4554 0.199106 19.6966 0.365057 19.8995C0.531008 20.1025 0.743607 20.2608 0.984108 20.3607C1.22461 20.4605 1.48562 20.4988 1.74413 20.472C2.00264 20.4453 2.2507 20.3545 2.46644 20.2075C2.68218 20.0605 2.85897 19.8619 2.98122 19.6292L6.66137 20.2035C6.70733 20.5838 6.88566 20.935 7.16421 21.1936C7.44275 21.4523 7.80318 21.6014 8.18052 21.6142L9.8288 24.8519C9.58754 24.9547 9.37499 25.1163 9.20996 25.3224C9.04492 25.5285 8.93251 25.7726 8.88266 26.0333C8.83282 26.294 8.84709 26.5632 8.9242 26.8169C9.00131 27.0707 9.1389 27.3012 9.32476 27.4881C9.51062 27.6751 9.73904 27.8126 9.98977 27.8885C10.2405 27.9645 10.5058 27.9765 10.7622 27.9235C11.0186 27.8706 11.2582 27.7542 11.4597 27.5849C11.6613 27.4155 11.8186 27.1983 11.9176 26.9526L17.5081 28.6947C17.5288 29.0168 17.6446 29.3251 17.8404 29.5795C18.0361 29.8338 18.3028 30.0225 18.6057 30.1209L18.5222 35.3436C18.1591 35.4587 17.8486 35.7021 17.6471 36.0296C17.4456 36.3571 17.3664 36.747 17.4238 37.1287C17.4812 37.5104 17.6714 37.8585 17.96 38.1101C18.2486 38.3617 18.6165 38.5 18.9969 38.5C19.3773 38.5 19.7452 38.3617 20.0338 38.1101C20.3223 37.8585 20.5126 37.5104 20.57 37.1287C20.6274 36.747 20.5482 36.3571 20.3467 36.0296C20.1452 35.7021 19.8347 35.4587 19.4716 35.3436L19.5628 30.1209C19.8504 30.0319 20.107 29.8617 20.3028 29.6302C20.4986 29.3987 20.6255 29.1154 20.6685 28.8134C20.7115 28.5114 20.6689 28.2033 20.5458 27.9249C20.4226 27.6466 20.2239 27.4096 19.973 27.2416L20.7591 24.8596L26.5243 26.86C26.5236 27.2044 26.6317 27.5399 26.8327 27.8174C27.0336 28.0948 27.3169 28.2997 27.6409 28.4018V35.3397C27.2778 35.4549 26.9673 35.6983 26.7658 36.0258C26.5643 36.3533 26.4851 36.7432 26.5425 37.1248C26.5999 37.5065 26.7902 37.8547 27.0788 38.1063C27.3673 38.3578 27.7352 38.4961 28.1156 38.4961C28.4961 38.4961 28.8639 38.3578 29.1525 38.1063C29.4411 37.8547 29.6313 37.5065 29.6887 37.1248C29.7461 36.7432 29.6669 36.3533 29.4654 36.0258C29.2639 35.6983 28.9535 35.4549 28.5904 35.3397V28.4018C28.8077 28.3352 29.0082 28.2215 29.178 28.0685C29.3478 27.9156 29.4829 27.7271 29.5739 27.516C29.6649 27.3049 29.7097 27.0762 29.7051 26.8459C29.7005 26.6155 29.6467 26.3889 29.5474 26.1817L34.6366 21.8994C34.8868 22.0596 35.1763 22.1451 35.4721 22.1461C35.8497 22.1436 36.2141 22.0046 36.4998 21.7541C36.7855 21.5035 36.9738 21.1578 37.031 20.779C37.0882 20.4002 37.0104 20.0131 36.8117 19.6872C36.613 19.3614 36.3064 19.118 35.9469 19.0009V12.8339C36.2684 12.7326 36.5499 12.5301 36.7506 12.2557C36.9513 11.9813 37.0609 11.6493 37.0634 11.3076ZM34.6442 19.1628L29.9994 15.1967L34.5568 12.6335C34.6878 12.7227 34.8312 12.7916 34.9822 12.8378V19.0048C34.8625 19.0435 34.7477 19.0965 34.6404 19.1628H34.6442ZM17.7436 27.762L11.9974 25.9697C11.93 25.687 11.7886 25.4282 11.588 25.2205C11.3874 25.0129 11.1351 24.8642 10.858 24.7902L9.111 21.3406C9.25811 21.2347 9.38651 21.1044 9.49079 20.9551L16.8093 23.4913L17.9487 27.4652C17.8696 27.556 17.8008 27.6556 17.7436 27.762ZM6.83227 19.2553L3.14832 18.681C3.11192 18.374 2.989 18.0841 2.79431 17.8462C2.59963 17.6083 2.34145 17.4324 2.05073 17.3397V12.8378C2.29418 12.7599 2.51553 12.6236 2.69602 12.4404C2.87651 12.2572 3.01082 12.0326 3.08756 11.7855H6.83227L7.69439 18.4845C7.32226 18.6232 7.01472 18.8981 6.83227 19.2553ZM5.89799 6.80179C5.9962 6.80074 6.0941 6.79042 6.19043 6.77096L6.71074 10.8258H3.08756C3.01675 10.5929 2.89467 10.3793 2.73056 10.2014L5.46123 6.73241C5.60286 6.77635 5.74991 6.79971 5.89799 6.80179ZM8.64766 18.4536L7.78934 11.7855H12.267C12.3652 12.1059 12.5598 12.3871 12.8233 12.5896C13.0869 12.7921 13.4063 12.9059 13.7368 12.9149L14.6141 15.9483L9.2971 18.8275C9.11307 18.6521 8.89041 18.5239 8.64766 18.4536ZM22.7492 11.5157L17.9145 14.1598L15.3471 11.5273C15.3859 11.3038 15.3736 11.0742 15.311 10.8563C15.2485 10.6385 15.1374 10.4381 14.9863 10.2707L18.0626 7.33755L22.7834 10.8489C22.7086 11.0681 22.6916 11.3032 22.734 11.5311L22.7492 11.5157ZM14.9028 12.4446L17.041 14.6339L15.4725 15.4742L14.6521 12.6412C14.7419 12.5843 14.8258 12.5184 14.9028 12.4446ZM14.4166 11.2883C14.4166 11.4171 14.379 11.5431 14.3085 11.6502C14.2379 11.7573 14.1377 11.8408 14.0204 11.8901C13.9031 11.9394 13.7741 11.9523 13.6496 11.9272C13.5251 11.902 13.4107 11.84 13.321 11.7489C13.2312 11.6578 13.1701 11.5417 13.1453 11.4154C13.1205 11.289 13.1332 11.1581 13.1818 11.039C13.2304 10.92 13.3127 10.8183 13.4182 10.7467C13.5238 10.6751 13.6479 10.6369 13.7748 10.6369C13.8617 10.6353 13.9479 10.6516 14.0284 10.6849C14.1089 10.7181 14.1819 10.7676 14.243 10.8303C14.304 10.893 14.3519 10.9676 14.3837 11.0497C14.4156 11.1317 14.4306 11.2194 14.428 11.3076L14.4166 11.2883ZM9.80602 20.0609C9.80602 20.0416 9.80602 20.0224 9.80602 20.0031C9.80621 19.8904 9.79475 19.778 9.77183 19.6678L14.8838 16.8926L16.4789 22.3735L9.80602 20.0609ZM15.7421 16.4301L17.736 15.347L20.6034 18.2879C20.4632 18.6441 20.4548 19.0399 20.5798 19.4019C20.7047 19.764 20.9546 20.0679 21.2832 20.2575L20.1439 23.6532L17.5613 22.7551L15.7421 16.4301ZM22.0808 19.5136C21.9538 19.5136 21.8297 19.4754 21.7242 19.4038C21.6186 19.3322 21.5364 19.2305 21.4878 19.1115C21.4392 18.9924 21.4265 18.8615 21.4513 18.7351C21.476 18.6087 21.5372 18.4927 21.6269 18.4016C21.7167 18.3105 21.8311 18.2484 21.9556 18.2233C22.0801 18.1982 22.2091 18.2111 22.3264 18.2604C22.4437 18.3097 22.5439 18.3932 22.6145 18.5003C22.685 18.6074 22.7226 18.7334 22.7226 18.8622C22.7236 18.948 22.7079 19.0333 22.6763 19.1129C22.6448 19.1926 22.598 19.2652 22.5387 19.3264C22.4794 19.3877 22.4087 19.4364 22.3308 19.4699C22.2529 19.5033 22.1692 19.5208 22.0846 19.5213L22.0808 19.5136ZM22.0808 17.251C21.7655 17.2506 21.4573 17.3459 21.1959 17.5247L18.6057 14.8729L23.1632 12.3907C23.4425 12.6992 23.8303 12.8836 24.2427 12.9038C24.6551 12.924 25.0587 12.7784 25.366 12.4986L28.3207 15.0155L23.2961 17.8331C23.1478 17.6533 22.9625 17.5086 22.7532 17.4094C22.5438 17.3102 22.3156 17.2588 22.0846 17.2588L22.0808 17.251ZM29.574 7.14869C29.7779 7.22722 29.996 7.26029 30.2136 7.24566C30.4311 7.23103 30.643 7.16903 30.8349 7.06389L34.0441 10.6099C33.9481 10.8028 33.893 11.0139 33.8826 11.2297C33.8721 11.4455 33.9064 11.6611 33.9833 11.8626L29.2018 14.5337L25.8597 11.6815C25.9475 11.3351 25.9139 10.9686 25.7647 10.6446L29.574 7.14869ZM24.9558 11.3076C24.9558 11.4359 24.9184 11.5614 24.8484 11.6682C24.7783 11.7751 24.6787 11.8586 24.5621 11.9082C24.4455 11.9578 24.317 11.9714 24.1928 11.9472C24.0687 11.923 23.9543 11.8621 23.8641 11.7721C23.7739 11.6822 23.7119 11.5672 23.6858 11.4416C23.6598 11.316 23.6709 11.1854 23.7177 11.0662C23.7646 10.947 23.8451 10.8445 23.9491 10.7715C24.0532 10.6986 24.1761 10.6585 24.3025 10.6562C24.3878 10.6546 24.4725 10.6704 24.5517 10.7024C24.6309 10.7345 24.703 10.7822 24.7638 10.8428C24.8246 10.9035 24.8729 10.9758 24.9059 11.0556C24.9388 11.1354 24.9558 11.2211 24.9558 11.3076ZM23.6607 18.7311L29.0917 15.6977L33.5884 19.5251L23.6037 19.3286C23.649 19.1825 23.6733 19.0307 23.6759 18.8776C23.6759 18.8236 23.6645 18.7774 23.6607 18.7311ZM35.4721 10.6562C35.5991 10.6562 35.7232 10.6944 35.8287 10.766C35.9343 10.8375 36.0165 10.9393 36.0651 11.0583C36.1137 11.1773 36.1264 11.3083 36.1016 11.4347C36.0769 11.561 36.0157 11.6771 35.926 11.7682C35.8362 11.8593 35.7218 11.9213 35.5973 11.9465C35.4728 11.9716 35.3438 11.9587 35.2265 11.9094C35.1092 11.8601 35.009 11.7766 34.9384 11.6695C34.8679 11.5624 34.8303 11.4364 34.8303 11.3076C34.8303 11.1348 34.8979 10.9691 35.0183 10.847C35.1386 10.7248 35.3019 10.6562 35.4721 10.6562ZM30.1095 4.98252C30.2365 4.98252 30.3605 5.02072 30.4661 5.0923C30.5716 5.16388 30.6539 5.26561 30.7025 5.38464C30.7511 5.50366 30.7638 5.63463 30.739 5.76099C30.7143 5.88735 30.6531 6.00342 30.5634 6.09452C30.4736 6.18562 30.3592 6.24765 30.2347 6.27279C30.1102 6.29792 29.9812 6.28502 29.8639 6.23572C29.7466 6.18642 29.6464 6.10293 29.5758 5.99581C29.5053 5.88869 29.4677 5.76275 29.4677 5.63391C29.4677 5.46115 29.5353 5.29547 29.6557 5.17331C29.776 5.05115 29.9393 4.98252 30.1095 4.98252ZM28.5904 5.12513C28.5058 5.36174 28.4795 5.61577 28.514 5.86504C28.5484 6.1143 28.6424 6.35123 28.7878 6.55511L25.1115 9.9277C24.8357 9.75602 24.5141 9.67599 24.1913 9.69879C23.8686 9.72159 23.5609 9.84609 23.3113 10.0549L18.7538 6.66689L21.982 3.58338C22.2017 3.69831 22.4451 3.75905 22.6922 3.76068C22.9481 3.76072 23.2001 3.69801 23.427 3.57788C23.6538 3.45775 23.8486 3.28376 23.9949 3.07074L28.5904 5.12513ZM21.3098 2.91657L17.9867 6.08488L13.6685 2.87031C13.7049 2.79451 13.7354 2.71589 13.7596 2.6352H21.1921C21.2223 2.7326 21.2618 2.82683 21.3098 2.91657ZM22.6998 1.502C22.8268 1.502 22.9509 1.54021 23.0564 1.61178C23.162 1.68336 23.2442 1.78509 23.2928 1.90412C23.3414 2.02315 23.3541 2.15412 23.3293 2.28048C23.3046 2.40683 23.2435 2.5229 23.1537 2.614C23.0639 2.7051 22.9496 2.76714 22.8251 2.79227C22.7005 2.81741 22.5715 2.80451 22.4542 2.7552C22.3369 2.7059 22.2367 2.62241 22.1662 2.51529C22.0956 2.40817 22.058 2.28223 22.058 2.1534C22.058 2.06753 22.0747 1.98251 22.1072 1.90323C22.1397 1.82394 22.1873 1.75196 22.2473 1.69142C22.3073 1.63089 22.3785 1.58299 22.4568 1.55048C22.5352 1.51797 22.619 1.5015 22.7036 1.502H22.6998ZM12.2329 1.502C12.3598 1.502 12.4839 1.54021 12.5895 1.61178C12.695 1.68336 12.7773 1.78509 12.8258 1.90412C12.8744 2.02315 12.8871 2.15412 12.8624 2.28048C12.8376 2.40683 12.7765 2.5229 12.6867 2.614C12.597 2.7051 12.4826 2.76714 12.3581 2.79227C12.2336 2.81741 12.1045 2.80451 11.9872 2.7552C11.87 2.7059 11.7697 2.62241 11.6992 2.51529C11.6287 2.40817 11.591 2.28223 11.591 2.1534C11.591 1.98064 11.6586 1.81495 11.779 1.69279C11.8994 1.57063 12.0626 1.502 12.2329 1.502ZM11.0441 3.21335C11.2772 3.49131 11.598 3.6786 11.9519 3.74327C12.3059 3.80794 12.6709 3.74598 12.9848 3.56796L17.284 6.75939L14.1546 9.74269C13.7614 9.63644 13.3429 9.69019 12.9882 9.8925C12.6335 10.0948 12.3706 10.4297 12.2557 10.8258H7.66781L7.07913 6.25832C7.34196 5.96507 7.48813 5.58322 7.48931 5.1868C7.48931 5.1444 7.48931 5.10586 7.48931 5.06732L11.0441 3.21335ZM5.89799 4.53926C6.02494 4.53926 6.14903 4.57747 6.25458 4.64904C6.36013 4.72062 6.4424 4.82235 6.49098 4.94138C6.53956 5.06041 6.55227 5.19138 6.5275 5.31774C6.50274 5.4441 6.44161 5.56016 6.35184 5.65126C6.26208 5.74236 6.14771 5.8044 6.02321 5.82953C5.8987 5.85467 5.76965 5.84177 5.65237 5.79247C5.53509 5.74316 5.43484 5.65967 5.36432 5.55255C5.29379 5.44543 5.25615 5.31949 5.25615 5.19066C5.25615 5.0179 5.32377 4.85221 5.44414 4.73005C5.56451 4.60789 5.72776 4.53926 5.89799 4.53926ZM1.576 10.6562C1.70294 10.6562 1.82704 10.6944 1.93259 10.766C2.03814 10.8375 2.1204 10.9393 2.16898 11.0583C2.21756 11.1773 2.23027 11.3083 2.20551 11.4347C2.18074 11.561 2.11961 11.6771 2.02985 11.7682C1.94009 11.8593 1.82572 11.9213 1.70122 11.9465C1.57671 11.9716 1.44766 11.9587 1.33038 11.9094C1.21309 11.8601 1.11285 11.7766 1.04233 11.6695C0.971799 11.5624 0.934156 11.4364 0.934156 11.3076C0.934156 11.1348 1.00178 10.9691 1.12215 10.847C1.24252 10.7248 1.40577 10.6562 1.576 10.6562ZM1.576 19.5213C1.44905 19.5213 1.32496 19.4831 1.21941 19.4115C1.11386 19.3399 1.03159 19.2382 0.983014 19.1192C0.934434 19.0001 0.921723 18.8692 0.946488 18.7428C0.971254 18.6165 1.03238 18.5004 1.12215 18.4093C1.21191 18.3182 1.32628 18.2562 1.45078 18.231C1.57529 18.2059 1.70434 18.2188 1.82162 18.2681C1.9389 18.3174 2.03915 18.4009 2.10967 18.508C2.1802 18.6151 2.21784 18.7411 2.21784 18.8699C2.21784 19.0427 2.15022 19.2083 2.02985 19.3305C1.90948 19.4527 1.74623 19.5213 1.576 19.5213ZM7.59185 20.0031C7.59185 19.8743 7.62949 19.7483 7.70002 19.6412C7.77054 19.5341 7.87079 19.4506 7.98807 19.4013C8.10535 19.352 8.2344 19.3391 8.35891 19.3642C8.48341 19.3893 8.59778 19.4514 8.68754 19.5425C8.7773 19.6336 8.83843 19.7496 8.8632 19.876C8.88797 20.0024 8.87526 20.1333 8.82668 20.2524C8.7781 20.3714 8.69583 20.4731 8.59028 20.5447C8.48473 20.6163 8.36063 20.6545 8.23369 20.6545C8.06346 20.6545 7.90021 20.5858 7.77984 20.4637C7.65947 20.3415 7.59185 20.1758 7.59185 20.0031ZM10.463 26.9911C10.3361 26.9911 10.212 26.9529 10.1065 26.8813C10.0009 26.8097 9.91864 26.708 9.87006 26.589C9.82148 26.47 9.80877 26.339 9.83354 26.2126C9.8583 26.0863 9.91943 25.9702 10.0092 25.8791C10.099 25.788 10.2133 25.726 10.3378 25.7008C10.4623 25.6757 10.5914 25.6886 10.7087 25.7379C10.826 25.7872 10.9262 25.8707 10.9967 25.9778C11.0672 26.0849 11.1049 26.2109 11.1049 26.3397C11.1049 26.4259 11.088 26.5112 11.0553 26.5908C11.0226 26.6703 10.9746 26.7425 10.9142 26.8031C10.8538 26.8636 10.7822 26.9115 10.7034 26.9437C10.6247 26.976 10.5404 26.9921 10.4555 26.9911H10.463ZM18.9855 37.5406C18.8586 37.5406 18.7345 37.5024 18.6289 37.4308C18.5234 37.3592 18.4411 37.2575 18.3925 37.1385C18.3439 37.0194 18.3312 36.8885 18.356 36.7621C18.3808 36.6357 18.4419 36.5197 18.5317 36.4286C18.6214 36.3375 18.7358 36.2754 18.8603 36.2503C18.9848 36.2252 19.1138 36.2381 19.2311 36.2874C19.3484 36.3367 19.4486 36.4202 19.5192 36.5273C19.5897 36.6344 19.6273 36.7603 19.6273 36.8892C19.6273 37.0619 19.5597 37.2276 19.4394 37.3498C19.319 37.4719 19.1557 37.5406 18.9855 37.5406ZM19.0805 29.2536C18.9546 29.2491 18.8328 29.2071 18.7303 29.1328C18.6278 29.0585 18.5491 28.9553 18.504 28.8359C18.4589 28.7165 18.4493 28.5864 18.4766 28.4616C18.5039 28.3368 18.5668 28.2229 18.6574 28.1341C18.748 28.0453 18.8623 27.9855 18.9862 27.9622C19.11 27.9389 19.2379 27.953 19.3538 28.003C19.4698 28.0529 19.5687 28.1363 19.6383 28.2429C19.7079 28.3494 19.745 28.4744 19.7451 28.6022C19.7451 28.6884 19.7282 28.7738 19.6955 28.8533C19.6628 28.9328 19.6148 29.005 19.5544 29.0656C19.494 29.1262 19.4223 29.174 19.3436 29.2063C19.2648 29.2386 19.1806 29.2546 19.0956 29.2536H19.0805ZM19.0425 26.9911C18.9596 26.9935 18.8771 27.0026 18.7956 27.0181L17.8879 23.8883L19.8438 24.5667L19.0425 26.9911ZM22.2137 20.4849C22.4407 20.4664 22.661 20.398 22.8593 20.2845L33.8732 20.508C33.8732 20.508 33.8732 20.535 33.8732 20.5466C33.8737 20.7668 33.919 20.9846 34.0061 21.1864L28.9018 25.4763C28.6633 25.3342 28.3922 25.2584 28.1156 25.2566C27.8575 25.2566 27.6032 25.3205 27.3749 25.4427C27.1466 25.565 26.9511 25.7419 26.8053 25.9581L21.0591 23.9538L22.2137 20.4849ZM28.1004 37.5406C27.9735 37.5406 27.8494 37.5024 27.7438 37.4308C27.6383 37.3592 27.556 37.2575 27.5074 37.1385C27.4589 37.0194 27.4462 36.8885 27.4709 36.7621C27.4957 36.6357 27.5568 36.5197 27.6466 36.4286C27.7363 36.3375 27.8507 36.2754 27.9752 36.2503C28.0997 36.2252 28.2288 36.2381 28.3461 36.2874C28.4633 36.3367 28.5636 36.4202 28.6341 36.5273C28.7046 36.6344 28.7423 36.7603 28.7423 36.8892C28.7423 37.0619 28.6746 37.2276 28.5543 37.3498C28.4339 37.4719 28.2707 37.5406 28.1004 37.5406ZM28.1004 27.5191C27.9735 27.5191 27.8494 27.4809 27.7438 27.4094C27.6383 27.3378 27.556 27.2361 27.5074 27.117C27.4589 26.998 27.4462 26.867 27.4709 26.7407C27.4957 26.6143 27.5568 26.4983 27.6466 26.4072C27.7363 26.3161 27.8507 26.254 27.9752 26.2289C28.0997 26.2037 28.2288 26.2166 28.3461 26.2659C28.4633 26.3153 28.5636 26.3987 28.6341 26.5059C28.7046 26.613 28.7423 26.7389 28.7423 26.8678C28.7423 27.0405 28.6746 27.2062 28.5543 27.3284C28.4339 27.4505 28.2707 27.5191 28.1004 27.5191ZM35.4607 21.1825C35.3338 21.1825 35.2097 21.1443 35.1041 21.0727C34.9986 21.0012 34.9163 20.8994 34.8677 20.7804C34.8192 20.6614 34.8065 20.5304 34.8312 20.4041C34.856 20.2777 34.9171 20.1616 35.0069 20.0705C35.0966 19.9794 35.211 19.9174 35.3355 19.8923C35.46 19.8671 35.5891 19.88 35.7064 19.9293C35.8236 19.9786 35.9239 20.0621 35.9944 20.1692C36.0649 20.2764 36.1026 20.4023 36.1026 20.5311C36.1026 20.7019 36.0365 20.8659 35.9186 20.9877C35.8007 21.1095 35.6404 21.1795 35.4721 21.1825H35.4607Z" fill="white"/>
        <path d="M48.6052 21.965H48.5444L45.1377 13.5316H43.2463V24.2159H44.7351V16.353H44.7883L47.9671 24.135H49.1786L52.3537 16.353H52.403V24.2159H53.8994V13.5316H52.0043L48.6052 21.965Z" fill="white"/>
        <path d="M57.3214 16.1757H55.7377V24.2159H57.3214V16.1757Z" fill="white"/>
        <path d="M56.5314 13.1615C56.4105 13.1595 56.2903 13.1819 56.1779 13.2275C56.0656 13.273 55.9633 13.3409 55.8771 13.427C55.7908 13.5131 55.7223 13.6157 55.6755 13.729C55.6288 13.8422 55.6047 13.9638 55.6047 14.0866C55.6017 14.2732 55.6535 14.4565 55.7535 14.6132C55.8535 14.7699 55.9971 14.8928 56.1661 14.9664C56.3352 15.0399 56.522 15.0608 56.7027 15.0262C56.8835 14.9917 57.05 14.9034 57.1811 14.7725C57.3122 14.6416 57.402 14.4741 57.439 14.2912C57.476 14.1084 57.4586 13.9185 57.3889 13.7458C57.3193 13.573 57.2005 13.4252 57.0478 13.3212C56.8951 13.2171 56.7153 13.1616 56.5314 13.1615Z" fill="white"/>
        <path d="M63.041 16.087C61.8143 16.087 61.0205 16.5842 60.5382 17.5324H60.5078V16.1757H58.9886V24.2159H60.5724V19.5907C60.5724 18.3264 61.2864 17.4823 62.4713 17.4823C63.6562 17.4823 64.1842 18.1645 64.1842 19.3864V24.2159H65.7679V19.0626C65.7907 17.2125 64.7918 16.087 63.041 16.087Z" fill="white"/>
        <path d="M72.8737 17.5093H72.8357C72.5936 17.0587 72.2308 16.6868 71.7893 16.4365C71.3478 16.1862 70.8455 16.0677 70.3405 16.0947C68.3694 16.0947 67.0135 17.7174 67.0135 20.1881C67.0135 22.6588 68.3694 24.2969 70.3557 24.2969C70.8695 24.3247 71.3806 24.2036 71.8292 23.9476C72.2777 23.6917 72.6453 23.3115 72.8889 22.8515H72.9155V24.2159H74.4346V13.0382H72.8585L72.8737 17.5093ZM70.7583 22.9363C69.4746 22.9363 68.6352 21.8609 68.6352 20.1958C68.6352 18.5307 69.4822 17.4553 70.7583 17.4553C72.0344 17.4553 72.8813 18.5577 72.8813 20.1958C72.8813 21.8339 72.0268 22.9363 70.7583 22.9363Z" fill="white"/>
        <path d="M79.9416 21.7877L82.4102 19.5675C82.9723 19.0626 84.1838 17.9525 84.1838 16.484C84.1838 14.5568 82.6153 13.2348 80.0631 13.2348C77.5109 13.2348 75.7677 14.6994 75.7677 16.8849V16.9427H78.5857V16.8772C78.5827 16.6966 78.6167 16.5173 78.6853 16.3507C78.754 16.1841 78.856 16.0338 78.9849 15.9092C79.1137 15.7846 79.2666 15.6885 79.4339 15.6269C79.6011 15.5653 79.7792 15.5395 79.9568 15.5513C80.7505 15.5513 81.2101 16.0022 81.2101 16.5804C81.2101 17.1585 80.8911 17.6827 80.1808 18.3264L75.9538 22.1269V24.2159H84.3091V21.8455H79.9416V21.7877Z" fill="white"/>
        <path d="M91.2061 21.965H91.1491L87.7424 13.5316H85.8511V24.2159H87.3399V16.353H87.3892L90.5718 24.135H91.7834L94.9584 16.353H95.0078V24.2159H96.5041V13.5316H94.6052L91.2061 21.965Z" fill="white"/>
        <path d="M101.479 16.0716C99.6982 16.0716 98.3727 17.1239 98.3272 18.5461H99.8083C99.9488 17.8485 100.568 17.3898 101.434 17.3898C102.493 17.3898 103.097 17.8947 103.097 18.8121V19.4326L100.959 19.5598C99.0032 19.687 97.9208 20.5003 97.9208 21.9072C97.9208 23.314 99.0146 24.293 100.598 24.293C101.104 24.3101 101.604 24.1866 102.045 23.9359C102.486 23.6852 102.851 23.3169 103.101 22.8708H103.139V24.2121H104.658V18.7003C104.658 17.1084 103.413 16.0716 101.479 16.0716ZM103.097 21.1941C103.097 22.2541 102.209 23.0172 101.031 23.0172C100.12 23.0172 99.5121 22.574 99.5121 21.884C99.5121 21.1941 100.074 20.7663 101.153 20.7007L103.078 20.5658L103.097 21.1941Z" fill="white"/>
        <path d="M108.3 14.368H106.717V16.1757H105.623V17.4399H106.717V22.0999C106.717 23.6416 107.328 24.2699 108.912 24.2699C109.21 24.2731 109.508 24.2459 109.8 24.189V22.9209C109.622 22.9435 109.441 22.9564 109.261 22.9594C108.597 22.9594 108.293 22.6318 108.293 21.938V17.4399H109.812V16.1757H108.293L108.3 14.368Z" fill="white"/>
        <path d="M113.2 14.368H111.624V16.1757H110.515V17.4399H111.608V22.0999C111.608 23.6416 112.22 24.2699 113.803 24.2699C114.102 24.2718 114.399 24.2434 114.692 24.1851V22.9209C114.513 22.9435 114.333 22.9564 114.153 22.9594C113.488 22.9594 113.184 22.6318 113.184 21.938V17.4399H114.704V16.1757H113.184L113.2 14.368Z" fill="white"/>
        <path d="M119.174 16.0716C116.956 16.0716 115.513 17.7097 115.513 20.2266C115.513 22.7436 116.944 24.3123 119.242 24.3123C121.023 24.3123 122.417 23.3063 122.66 21.8609H121.141C120.921 22.5663 120.199 23.0172 119.28 23.0172C117.981 23.0172 117.119 22.0999 117.119 20.7046V20.6082H122.729V20.0416C122.721 17.6018 121.35 16.0716 119.174 16.0716ZM117.115 19.4635C117.203 18.2262 118.027 17.3821 119.166 17.3821C120.306 17.3821 121.099 18.2108 121.137 19.4635H117.115Z" fill="white"/>
        <path d="M127.442 16.0947C127.011 16.0805 126.589 16.215 126.244 16.4762C125.899 16.7374 125.652 17.1098 125.543 17.5324H125.512V16.1757H123.993V24.2159H125.577V19.4172C125.577 18.284 126.234 17.5517 127.278 17.5517C127.522 17.545 127.766 17.5775 128 17.6481V16.1448C127.816 16.1078 127.629 16.091 127.442 16.0947Z" fill="white"/>
    </g>
    <defs>
        <clipPath id="clip0_374_1263">
            <rect width="128" height="38" fill="white" transform="translate(0 0.5)"/>
        </clipPath>
    </defs>
</svg>
